<?xml version="1.0" encoding="UTF-8"?> <svg xmlns="http://www.w3.org/2000/svg" width="42" height="42" viewBox="0 0 42 42" fill="none"> <g clip-path="url(#clip0)"> <path d="M30.8561 29.5204C30.8785 29.1711 31.184 28.9069 31.534 28.9069H33.0245C33.2648 28.9069 33.4553 28.7012 33.4343 28.4618C32.907 22.4561 28.1077 17.6569 22.1021 17.1295C21.8627 17.1085 21.6569 17.2989 21.6569 17.5393V19.0298C21.6569 19.3798 21.3927 19.6853 21.0434 19.7078C20.6607 19.7323 20.343 19.4295 20.343 19.0522V17.5393C20.343 17.299 20.1373 17.1085 19.8979 17.1295C13.8923 17.6568 9.09303 22.4561 8.56563 28.4618C8.54461 28.7012 8.73505 28.9069 8.97543 28.9069H10.4659C10.8159 28.9069 11.1214 29.1711 11.1438 29.5204C11.1683 29.9031 10.8656 30.2208 10.4882 30.2208H8.97534C8.73505 30.2208 8.54453 30.4266 8.56555 30.6659C9.09286 36.6716 13.8921 41.4708 19.8978 41.9982C20.1372 42.0192 20.3429 41.8288 20.3429 41.5884V40.0979C20.3429 39.7479 20.6072 39.4424 20.9564 39.42C21.3391 39.3954 21.6569 39.6982 21.6569 40.0755V41.5884C21.6569 41.8287 21.8626 42.0192 22.102 41.9982C28.1076 41.4709 32.9068 36.6716 33.4342 30.6659C33.4552 30.4266 33.2648 30.2208 33.0244 30.2208H31.5116C31.1343 30.2208 30.8315 29.9031 30.8561 29.5204ZM28.625 25.383C28.625 25.7353 28.3466 26.0121 28.0313 26.0367C27.9887 26.0416 28.1438 26.04 25.2042 26.04C24.8549 26.04 24.5489 25.7769 24.5254 25.4284C24.4996 25.0458 24.8028 24.726 25.1808 24.726H26.0916C26.1992 24.726 26.2531 24.596 26.177 24.52L26.1739 24.5169C23.3545 21.6977 18.7621 21.6185 15.9245 24.4195C13.0661 27.2409 13.0531 31.8372 15.8902 34.6744C18.7136 37.4978 23.2845 37.4986 26.1104 34.6744C26.3666 34.4174 26.783 34.4174 27.0392 34.6744C27.2954 34.9306 27.2954 35.347 27.0392 35.6032C25.4263 37.2161 23.2813 38.1047 20.9999 38.1047C16.2795 38.1047 12.4591 34.2852 12.4591 29.5639C12.4591 24.8384 16.2869 21.015 21.0151 21.0232C23.302 21.0271 25.4871 21.9725 27.1042 23.5897L27.1049 23.5903C27.1809 23.6664 27.3109 23.6125 27.3109 23.505V22.6182C27.3109 22.2682 27.5752 21.9627 27.9245 21.9403C28.3071 21.9157 28.6249 22.2185 28.6249 22.5958V25.383H28.625ZM22.3139 30.8778C21.8992 30.8778 21.5888 30.4992 21.6701 30.0919L22.3271 26.807C22.3977 26.4514 22.7434 26.2206 23.0998 26.2921C23.4554 26.3627 23.6862 26.7093 23.6147 27.0649L23.2136 29.0728C23.1628 29.3268 23.3571 29.5639 23.6162 29.5639H24.5312C24.758 29.5639 24.9419 29.38 24.9419 29.1532V28.2722C24.9419 27.9222 25.2061 27.6167 25.5554 27.5943C25.9381 27.5698 26.2558 27.8725 26.2558 28.2499V32.1694C26.2558 32.5194 25.9915 32.8249 25.6423 32.8474C25.2596 32.8719 24.9419 32.5691 24.9419 32.1918V31.2884C24.9419 31.0617 24.758 30.8778 24.5312 30.8778H22.3139ZM18.372 27.5929H17.7008C17.3374 27.5929 17.0619 27.8936 17.058 28.257C17.0541 28.6246 16.7487 28.9195 16.3773 28.9065C16.0055 28.8933 15.7335 28.5598 15.745 28.1881C15.7779 27.1301 16.6492 26.279 17.715 26.279H18.372C20.2435 26.279 21.0574 28.6524 19.5833 29.83L18.3666 30.8037C18.0636 31.0462 18.2351 31.5349 18.6232 31.5349H19.6635C20.0135 31.5349 20.319 31.7991 20.3414 32.1484C20.366 32.5311 20.0632 32.8488 19.6858 32.8488H16.4009C16.0381 32.8488 15.744 32.5547 15.744 32.1919V31.5349C15.744 31.3353 15.8343 31.1464 15.9903 31.0216L18.7628 28.8043C19.2696 28.3977 19.0044 27.5929 18.372 27.5929Z" fill="#326DC3"></path> <path d="M38.0814 2.62792H34.7965V1.97094C34.7965 0.884459 33.9121 0 32.8256 0C31.7391 0 30.8546 0.884459 30.8546 1.97094V2.62792H11.1452V1.97094C11.1452 0.884459 10.2608 0 9.17429 0C8.08781 0 7.20335 0.884459 7.20335 1.97094V2.62792H3.91845C2.46899 2.62792 1.29053 3.80638 1.29053 5.25584V32.849C1.29053 34.2985 2.46899 35.4769 3.91845 35.4769H7.86033C8.22331 35.4769 8.51731 35.1829 8.51731 34.8199C8.51731 34.457 8.22331 34.163 7.86033 34.163H3.91845C3.19413 34.163 2.60449 33.5733 2.60449 32.849V10.5117H39.3954V32.849C39.3954 33.5733 38.8057 34.163 38.0814 34.163H34.1395C33.7766 34.163 33.4826 34.457 33.4826 34.8199C33.4826 35.1829 33.7766 35.4769 34.1395 35.4769H38.0814C39.5309 35.4769 40.7093 34.2985 40.7093 32.849V5.25584C40.7093 3.80638 39.5309 2.62792 38.0814 2.62792ZM9.83127 5.25584C9.83127 5.618 9.53645 5.91282 9.17429 5.91282C8.81213 5.91282 8.51731 5.618 8.51731 5.25584V1.97094C8.51731 1.60878 8.81213 1.31396 9.17429 1.31396C9.53645 1.31396 9.83127 1.60878 9.83127 1.97094V5.25584ZM33.4826 5.25584C33.4826 5.618 33.1877 5.91282 32.8256 5.91282C32.4634 5.91282 32.1686 5.618 32.1686 5.25584V1.97094C32.1686 1.60878 32.4634 1.31396 32.8256 1.31396C33.1877 1.31396 33.4826 1.60878 33.4826 1.97094V5.25584Z" fill="#326DC3"></path> </g> <defs> <clipPath id="clip0"> <rect width="42" height="42" fill="white"></rect> </clipPath> </defs> </svg> 