<?xml version="1.0" encoding="UTF-8"?> <svg xmlns="http://www.w3.org/2000/svg" width="38" height="38" viewBox="0 0 38 38" fill="none"> <path d="M38 12.543C38 10.0633 38 8.32861 38 8.16406C38 6.32247 36.5017 4.82422 34.6602 4.82422H34.2148V8.90625C34.2148 9.52108 33.7164 10.0195 33.1016 10.0195C32.4867 10.0195 31.9883 9.52108 31.9883 8.90625C31.9883 7.65648 31.9883 4.21325 31.9883 2.96875C31.9883 2.35392 31.4898 1.85547 30.875 1.85547C30.2602 1.85547 29.7617 2.35392 29.7617 2.96875V4.82422H22.3398V8.90625C22.3398 9.52108 21.8414 10.0195 21.2266 10.0195C20.6117 10.0195 20.1133 9.52108 20.1133 8.90625C20.1133 7.65648 20.1133 4.21325 20.1133 2.96875C20.1133 2.35392 19.6148 1.85547 19 1.85547C18.3852 1.85547 17.8867 2.35392 17.8867 2.96875V4.82422H10.4648V8.90625C10.4648 9.52108 9.96639 10.0195 9.35156 10.0195C8.73673 10.0195 8.23828 9.52108 8.23828 8.90625C8.23828 7.65648 8.23828 4.21325 8.23828 2.96875C8.23828 2.35392 7.73983 1.85547 7.125 1.85547C6.51017 1.85547 6.01172 2.35392 6.01172 2.96875V4.82422H3.33984C1.49825 4.82422 0 6.32247 0 8.16406V12.543H38Z" fill="#326DC3"></path> <path d="M0 14.7695V32.8047C0 34.6463 1.49825 36.1445 3.33984 36.1445H34.6602C36.5017 36.1445 38 34.6463 38 32.8047C38 32.3278 38 21.9085 38 14.7695C37.3072 14.7695 0.383266 14.7695 0 14.7695ZM10.6875 30.207H8.3125C7.69767 30.207 7.19922 29.7086 7.19922 29.0938C7.19922 28.4789 7.69767 27.9805 8.3125 27.9805H10.6875C11.3023 27.9805 11.8008 28.4789 11.8008 29.0938C11.8008 29.7086 11.3023 30.207 10.6875 30.207ZM10.6875 25.457H8.3125C7.69767 25.457 7.19922 24.9586 7.19922 24.3438C7.19922 23.7289 7.69767 23.2305 8.3125 23.2305H10.6875C11.3023 23.2305 11.8008 23.7289 11.8008 24.3438C11.8008 24.9586 11.3023 25.457 10.6875 25.457ZM10.6875 20.707H8.3125C7.69767 20.707 7.19922 20.2086 7.19922 19.5938C7.19922 18.9789 7.69767 18.4805 8.3125 18.4805H10.6875C11.3023 18.4805 11.8008 18.9789 11.8008 19.5938C11.8008 20.2086 11.3023 20.707 10.6875 20.707ZM20.1875 30.207H17.8125C17.1977 30.207 16.6992 29.7086 16.6992 29.0938C16.6992 28.4789 17.1977 27.9805 17.8125 27.9805H20.1875C20.8023 27.9805 21.3008 28.4789 21.3008 29.0938C21.3008 29.7086 20.8023 30.207 20.1875 30.207ZM20.1875 25.457H17.8125C17.1977 25.457 16.6992 24.9586 16.6992 24.3438C16.6992 23.7289 17.1977 23.2305 17.8125 23.2305H20.1875C20.8023 23.2305 21.3008 23.7289 21.3008 24.3438C21.3008 24.9586 20.8023 25.457 20.1875 25.457ZM20.1875 20.707H17.8125C17.1977 20.707 16.6992 20.2086 16.6992 19.5938C16.6992 18.9789 17.1977 18.4805 17.8125 18.4805H20.1875C20.8023 18.4805 21.3008 18.9789 21.3008 19.5938C21.3008 20.2086 20.8023 20.707 20.1875 20.707ZM29.6875 30.207H27.3125C26.6977 30.207 26.1992 29.7086 26.1992 29.0938C26.1992 28.4789 26.6977 27.9805 27.3125 27.9805H29.6875C30.3023 27.9805 30.8008 28.4789 30.8008 29.0938C30.8008 29.7086 30.3023 30.207 29.6875 30.207ZM29.6875 25.457H27.3125C26.6977 25.457 26.1992 24.9586 26.1992 24.3438C26.1992 23.7289 26.6977 23.2305 27.3125 23.2305H29.6875C30.3023 23.2305 30.8008 23.7289 30.8008 24.3438C30.8008 24.9586 30.3023 25.457 29.6875 25.457ZM29.6875 20.707H27.3125C26.6977 20.707 26.1992 20.2086 26.1992 19.5938C26.1992 18.9789 26.6977 18.4805 27.3125 18.4805H29.6875C30.3023 18.4805 30.8008 18.9789 30.8008 19.5938C30.8008 20.2086 30.3023 20.707 29.6875 20.707Z" fill="#326DC3"></path> </svg> 