<?xml version="1.0" encoding="UTF-8"?> <svg xmlns="http://www.w3.org/2000/svg" width="37" height="38" viewBox="0 0 37 38" fill="none"> <path d="M31.929 19.1989H30.042C30.042 12.8741 25.0333 7.73122 18.8783 7.73122L18.8772 5.79551C26.0753 5.79202 31.929 11.8062 31.929 19.1989ZM18.8772 9.1388L18.876 11.0745C23.2402 11.0745 26.7855 14.7191 26.7833 19.1978L28.6703 19.1966C28.6703 13.6512 24.28 9.1388 18.8772 9.1388ZM18.5 0C8.29799 0 0 8.52225 0 19.0012C0 29.4777 8.29799 38 18.5 38C19.1309 38 19.6406 37.4765 19.6406 36.8297C19.6406 36.1795 19.1309 35.6548 18.5 35.6548C9.55639 35.6548 2.28234 28.1818 2.28234 19.0012C2.28234 9.81583 9.55639 2.34403 18.5 2.34403C27.4436 2.34403 34.7165 9.817 34.7165 19.0012C34.7165 22.8389 32.7275 26.6416 29.8811 28.254C28.847 28.8379 27.7256 29.1276 26.5295 29.1392C27.2477 28.7007 27.8695 28.1074 28.3316 27.3606C28.4222 27.2198 28.5423 27.0953 28.6012 26.9429C28.9727 26.0251 29.0056 24.984 29.2298 24.0138C29.5051 22.776 23.9538 20.3576 23.4713 21.9036C23.2969 22.4759 23.0296 24.286 22.6796 24.7629C22.3681 25.1887 21.6001 24.9863 21.1199 24.5675C19.8547 23.4601 18.4422 21.8326 17.2031 20.546L17.2053 20.5448C17.1736 20.5111 17.1351 20.4739 17.1011 20.4378C17.066 20.4041 17.0309 20.3657 16.9958 20.3308V20.3331C15.7431 19.0582 14.1573 17.611 13.0801 16.3093C12.6724 15.8161 12.4753 15.0274 12.8899 14.7075C13.3543 14.3457 15.1167 14.0758 15.674 13.8943C17.1759 13.4011 14.8245 7.69632 13.617 7.98016C12.6746 8.207 11.6609 8.24423 10.7672 8.62346C10.6154 8.68977 10.4976 8.80959 10.3606 8.90265C7.19023 10.9663 6.78133 15.9778 9.8758 19.7119C11.0549 21.1405 12.285 22.5224 13.5513 23.8719L13.5445 23.8765C13.5797 23.9126 13.6159 23.9463 13.6521 23.9812C13.6861 24.0173 13.719 24.0533 13.7518 24.0917L13.7586 24.0847C15.0725 25.3853 16.63 27.3012 19.1603 29.0345C24.4873 32.6884 28.5752 31.6682 30.9832 30.3118C35.1401 27.9608 37 22.9389 37 19.0058C37 8.52225 28.7009 0 18.5 0Z" fill="#326DC3"></path> </svg> 